<svg width="24" height="22" viewBox="0 0 24 22" fill="none" xmlns="http://www.w3.org/2000/svg">
<path d="M0 1H3L4.42547 5.14683M19.5 17H8.5L7.125 13M4.42547 5.14683H9.0691M4.42547 5.14683L5.77524 9.07341M7.125 13H10.4189M7.125 13L5.77524 9.07341M13.7127 5.14683V13M13.7127 5.14683H9.0691M13.7127 5.14683H18.3564M13.7127 13H10.4189M13.7127 13H16.8564M9.0691 5.14683L10.4189 13M18.3564 5.14683H23L21.5 9.07341M18.3564 5.14683L16.8564 13M16.8564 13H20L21.5 9.07341M21.5 9.07341H5.77524" stroke="white"/>
<circle cx="8.5" cy="19.5" r="2" stroke="white"/>
<circle cx="19.5" cy="19" r="2" stroke="white"/>
</svg>
