<svg id="Wordmark" xmlns="http://www.w3.org/2000/svg" viewBox="0 0 150.8 36.62"><g id="MaloufWordmark-Black"><path d="M144.85,9.31V9H146v.34h-.36v1h-.41v-1ZM146.22,9h0l.68.67.66-.67h0v1.39h-.4V9.78l-.3.33-.3-.33v.56h-.41Z"/><path d="M88.87,8.71a9.62,9.62,0,1,0,9.62,9.62A9.62,9.62,0,0,0,88.87,8.71Zm0,16A6.12,6.12,0,0,1,83,18.33a5.92,5.92,0,1,1,11.81,0A6.12,6.12,0,0,1,88.87,24.66Z"/><polygon points="61.15 8.95 61.15 27.67 72.75 27.67 72.75 24.04 64.78 24.04 64.78 8.95 61.15 8.95"/><polygon points="130.5 27.67 134.13 27.67 134.13 20.63 141.4 20.63 141.4 17.39 134.13 17.39 134.13 12.14 141.84 12.14 141.84 8.95 130.5 8.95 130.5 27.67"/><polygon points="44.56 8.57 53.52 27.67 49.49 27.67 44.49 17.04 39.51 27.67 35.46 27.67 44.42 8.57 44.56 8.57"/><path d="M114.18,28.09h-.41a7.57,7.57,0,0,1-7.56-7.56V9h3.63V20.53a3.93,3.93,0,0,0,3.93,3.93h.41a3.93,3.93,0,0,0,3.93-3.93V9h3.62V20.53A7.56,7.56,0,0,1,114.18,28.09Z"/><path d="M27.72,8.57h.15v19.1H24.18v-10l-5.7,6.52h-.14l-5.7-6.52v10H9V8.57H9.1l9.31,10.27Z"/></g></svg>