<svg width="89" height="12" viewBox="0 0 89 12" fill="none" xmlns="http://www.w3.org/2000/svg">
<path d="M86.5798 0.430724V0.246109H87.2806V0.430724H87.0258V1.04611H86.771V0.430724H86.5798ZM87.4718 0.246109L87.9177 0.61534L88.3637 0.18457V1.04611H88.1088V0.738416L87.9177 0.923032L87.7266 0.738416V1.10765H87.4718V0.246109Z" fill="white"/>
<path d="M50.9031 0.0615234C47.5266 0.0615234 44.7871 2.70768 44.7871 5.96922C44.7871 9.23075 47.5266 11.8769 50.9031 11.8769C54.2797 11.8769 57.0191 9.23075 57.0191 5.96922C57.0191 2.70768 54.2797 0.0615234 50.9031 0.0615234ZM50.9031 9.90768C48.8007 9.90768 47.1443 8.1846 47.1443 6.03075C47.1443 3.87691 48.8007 2.15383 50.9031 2.15383C53.0055 2.15383 54.6619 3.87691 54.6619 6.03075C54.6619 8.1846 53.0055 9.90768 50.9031 9.90768Z" fill="white"/>
<path d="M33.2559 0.246094V11.7538H40.646V9.5384H35.5494V0.246094H33.2559Z" fill="white"/>
<path d="M77.4058 11.7538H79.763V7.44609H84.35V5.41533H79.763V2.21532H84.6685V0.246094H77.4058V11.7538Z" fill="white"/>
<path d="M22.6803 0L28.414 11.7538H25.802L22.6166 5.23077L19.4949 11.7538H16.8828L22.6166 0H22.6803Z" fill="white"/>
<path d="M67.0212 11.9999H66.7664C64.0907 11.9999 61.9246 9.90763 61.9246 7.32302V0.246094H64.2181V7.38456C64.2181 8.7384 65.3648 9.78456 66.7027 9.78456H66.9575C68.3591 9.78456 69.4422 8.67686 69.4422 7.38456V0.246094H71.7357V7.38456C71.8631 9.90763 69.697 11.9999 67.0212 11.9999Z" fill="white"/>
<path d="M11.9772 0H12.0409V11.7538H9.68369V5.6L6.0523 9.6H5.9886L2.35721 5.6V11.7538H0V0H0.0637085L5.9886 6.33846L11.9772 0Z" fill="white"/>
</svg>
