<svg width="39" height="22" viewBox="0 0 39 22" fill="none" xmlns="http://www.w3.org/2000/svg">
<path d="M36.1339 16.0256H16.2218C16.1775 16.0256 16.1333 16.0256 16.089 16.0256C16.0669 16.0256 16.0448 16.0256 16.0005 16.0035L15.3589 15.7387L1.84074 9.38343C1.50887 9.22897 1.24337 8.96416 1.11063 8.63316C0.977879 8.30216 0.977879 7.92702 1.13275 7.59602C1.354 7.08848 1.84074 6.77954 2.39386 6.77954C2.59298 6.77954 2.76998 6.82367 2.94697 6.88988L16.6643 13.3113H36.1561C36.9083 13.3113 37.5278 13.9292 37.5278 14.6795C37.5278 15.0546 37.395 15.3856 37.1296 15.6504C36.8419 15.8711 36.5101 16.0256 36.1339 16.0256Z" stroke="white" stroke-miterlimit="10"/>
<path d="M34.8431 13.5556H16.5374C16.4934 13.5556 16.4493 13.5556 16.4053 13.5556C16.3832 13.5556 16.3612 13.5556 16.3172 13.5333L3.21025 7.24406C3.05605 7.17715 2.8578 6.99873 2.81374 6.57499C2.68157 5.25915 4.20153 1.75767 5.19281 1.0663C5.47918 0.865578 5.67743 0.910182 5.80961 0.954787L16.978 6.61959H34.5567C34.9532 6.61959 35.1074 6.97643 35.1955 7.93543C35.2616 8.64911 35.3057 9.60811 35.3057 10.6117C35.3057 11.3031 35.2836 11.9276 35.2396 12.3959C35.2175 13.0204 35.1515 13.5556 34.8431 13.5556Z" stroke="white" stroke-miterlimit="10"/>
<path d="M1 16.0254H16.7085" stroke="white" stroke-miterlimit="10"/>
<path d="M4 16V20.1322C4 20.6074 3.77143 21 3.5 21C3.22857 21 3 20.6074 3 20.1322V16" stroke="white" stroke-miterlimit="10"/>
<path d="M35 16V20.1322C35 20.6074 34.7714 21 34.5 21C34.2286 21 34 20.6074 34 20.1322V16" stroke="white" stroke-miterlimit="10"/>
</svg>
