<svg width="35" height="17" viewBox="0 0 35 17" fill="none" xmlns="http://www.w3.org/2000/svg">
<path d="M31.3332 6.05439H3.6665C2.29984 6.05439 1.1665 4.94569 1.1665 3.60874C1.1665 2.27178 2.29984 1.16309 3.6665 1.16309H31.3332C32.6998 1.16309 33.8332 2.27178 33.8332 3.60874C33.8332 4.94569 32.6998 6.05439 31.3332 6.05439Z" stroke="white" stroke-miterlimit="10"/>
<path d="M31.3332 10.9457H3.6665C2.29984 10.9457 1.1665 9.83705 1.1665 8.5001C1.1665 7.16314 2.29984 6.05444 3.6665 6.05444H31.3332C32.6998 6.05444 33.8332 7.16314 33.8332 8.5001C33.8332 9.83705 32.6998 10.9457 31.3332 10.9457Z" stroke="white" stroke-miterlimit="10"/>
<path d="M31.3332 15.8371H3.6665C2.29984 15.8371 1.1665 14.7284 1.1665 13.3915C1.1665 12.0545 2.29984 10.9458 3.6665 10.9458H31.3332C32.6998 10.9458 33.8332 12.0545 33.8332 13.3915C33.8332 14.7284 32.6998 15.8371 31.3332 15.8371Z" stroke="white" stroke-miterlimit="10"/>
</svg>
