<svg width="38" height="23" viewBox="0 0 38 23" fill="none" xmlns="http://www.w3.org/2000/svg">
<path d="M4.62824 18.2888V21.2666C4.62824 21.6222 4.28063 21.8888 3.86783 21.8888C3.45504 21.8888 3.10742 21.5999 3.10742 21.2666V18.2888" stroke="white" stroke-miterlimit="10"/>
<path d="M34.5208 18.2888V21.2666C34.5208 21.6222 34.1732 21.8888 33.7604 21.8888C33.3476 21.8888 33 21.5999 33 21.2666V18.2888" stroke="white" stroke-miterlimit="10"/>
<path d="M10.1686 6.44447C10.5886 6.44447 10.929 6.09625 10.929 5.66669C10.929 5.23714 10.5886 4.88892 10.1686 4.88892C9.74865 4.88892 9.4082 5.23714 9.4082 5.66669C9.4082 6.09625 9.74865 6.44447 10.1686 6.44447Z" fill="white"/>
<path d="M15.9259 6.44447C16.3459 6.44447 16.6863 6.09625 16.6863 5.66669C16.6863 5.23714 16.3459 4.88892 15.9259 4.88892C15.506 4.88892 15.1655 5.23714 15.1655 5.66669C15.1655 6.09625 15.506 6.44447 15.9259 6.44447Z" fill="white"/>
<path d="M21.6613 6.44447C22.0813 6.44447 22.4217 6.09625 22.4217 5.66669C22.4217 5.23714 22.0813 4.88892 21.6613 4.88892C21.2413 4.88892 20.9009 5.23714 20.9009 5.66669C20.9009 6.09625 21.2413 6.44447 21.6613 6.44447Z" fill="white"/>
<path d="M27.3971 6.44447C27.8171 6.44447 28.1575 6.09625 28.1575 5.66669C28.1575 5.23714 27.8171 4.88892 27.3971 4.88892C26.9772 4.88892 26.6367 5.23714 26.6367 5.66669C26.6367 6.09625 26.9772 6.44447 27.3971 6.44447Z" fill="white"/>
<path d="M10.1686 10.8888C10.5886 10.8888 10.929 10.5406 10.929 10.111C10.929 9.68147 10.5886 9.33325 10.1686 9.33325C9.74865 9.33325 9.4082 9.68147 9.4082 10.111C9.4082 10.5406 9.74865 10.8888 10.1686 10.8888Z" fill="white"/>
<path d="M15.9259 10.8888C16.3459 10.8888 16.6863 10.5406 16.6863 10.111C16.6863 9.68147 16.3459 9.33325 15.9259 9.33325C15.506 9.33325 15.1655 9.68147 15.1655 10.111C15.1655 10.5406 15.506 10.8888 15.9259 10.8888Z" fill="white"/>
<path d="M21.6613 10.8888C22.0813 10.8888 22.4217 10.5406 22.4217 10.111C22.4217 9.68147 22.0813 9.33325 21.6613 9.33325C21.2413 9.33325 20.9009 9.68147 20.9009 10.111C20.9009 10.5406 21.2413 10.8888 21.6613 10.8888Z" fill="white"/>
<path d="M27.3971 10.8888C27.8171 10.8888 28.1575 10.5406 28.1575 10.111C28.1575 9.68147 27.8171 9.33325 27.3971 9.33325C26.9772 9.33325 26.6367 9.68147 26.6367 10.111C26.6367 10.5406 26.9772 10.8888 27.3971 10.8888Z" fill="white"/>
<path d="M36.1525 18.2888H1.84708C1.43429 18.2888 1.1084 17.9555 1.1084 17.5332V14.111C1.1084 13.6888 1.43429 13.3555 1.84708 13.3555H36.1525C36.5653 13.3555 36.8911 13.6888 36.8911 14.111V17.5555C36.8911 17.9555 36.5653 18.2888 36.1525 18.2888Z" stroke="white" stroke-miterlimit="10"/>
<path d="M31.8074 1.11108H5.95346C5.67102 1.11108 5.43204 1.31108 5.38858 1.59997C5.21478 2.93331 4.34573 3.99997 3.19426 4.31108C2.78146 4.42219 2.49902 4.79997 2.49902 5.22219V12.3777C2.49902 12.9111 2.91182 13.3333 3.43324 13.3333H34.5232C35.0446 13.3333 35.4574 12.9111 35.4574 12.3777V5.19997C35.4574 4.77775 35.1749 4.39997 34.7839 4.28886C33.7628 3.97775 32.9589 3.04442 32.6982 1.86664C32.633 1.4222 32.2637 1.11108 31.8074 1.11108Z" stroke="white" stroke-miterlimit="10"/>
</svg>
