<svg width="36" height="23" viewBox="0 0 36 23" fill="none" xmlns="http://www.w3.org/2000/svg">
<path d="M31.7448 21.5115H4.25547C2.71221 21.5115 1.48242 20.2662 1.48242 18.7034V4.29642C1.48242 2.73363 2.71221 1.48828 4.25547 1.48828H31.7689C33.2881 1.48828 34.542 2.73363 34.542 4.29642V18.7278C34.5179 20.2662 33.2881 21.5115 31.7448 21.5115Z" stroke="#FFF4F4" stroke-miterlimit="10"/>
<path d="M6.73899 6.73811C7.2051 6.73811 7.58296 6.35547 7.58296 5.88346C7.58296 5.41145 7.2051 5.02881 6.73899 5.02881C6.27288 5.02881 5.89502 5.41145 5.89502 5.88346C5.89502 6.35547 6.27288 6.73811 6.73899 6.73811Z" fill="#FFF4F4"/>
<path d="M6.73899 10.1324C7.2051 10.1324 7.58296 9.74976 7.58296 9.27775C7.58296 8.80574 7.2051 8.4231 6.73899 8.4231C6.27288 8.4231 5.89502 8.80574 5.89502 9.27775C5.89502 9.74976 6.27288 10.1324 6.73899 10.1324Z" fill="#FFF4F4"/>
<path d="M6.73899 13.5267C7.2051 13.5267 7.58296 13.144 7.58296 12.672C7.58296 12.2 7.2051 11.8174 6.73899 11.8174C6.27288 11.8174 5.89502 12.2 5.89502 12.672C5.89502 13.144 6.27288 13.5267 6.73899 13.5267Z" fill="#FFF4F4"/>
<path d="M6.73899 16.9451C7.2051 16.9451 7.58296 16.5625 7.58296 16.0905C7.58296 15.6185 7.2051 15.2358 6.73899 15.2358C6.27288 15.2358 5.89502 15.6185 5.89502 16.0905C5.89502 16.5625 6.27288 16.9451 6.73899 16.9451Z" fill="#FFF4F4"/>
<path d="M14.2624 6.73811C14.7285 6.73811 15.1064 6.35547 15.1064 5.88346C15.1064 5.41145 14.7285 5.02881 14.2624 5.02881C13.7963 5.02881 13.4185 5.41145 13.4185 5.88346C13.4185 6.35547 13.7963 6.73811 14.2624 6.73811Z" fill="#FFF4F4"/>
<path d="M14.2624 10.1324C14.7285 10.1324 15.1064 9.74976 15.1064 9.27775C15.1064 8.80574 14.7285 8.4231 14.2624 8.4231C13.7963 8.4231 13.4185 8.80574 13.4185 9.27775C13.4185 9.74976 13.7963 10.1324 14.2624 10.1324Z" fill="#FFF4F4"/>
<path d="M14.2624 13.5267C14.7285 13.5267 15.1064 13.144 15.1064 12.672C15.1064 12.2 14.7285 11.8174 14.2624 11.8174C13.7963 11.8174 13.4185 12.2 13.4185 12.672C13.4185 13.144 13.7963 13.5267 14.2624 13.5267Z" fill="#FFF4F4"/>
<path d="M14.2624 16.9451C14.7285 16.9451 15.1064 16.5625 15.1064 16.0905C15.1064 15.6185 14.7285 15.2358 14.2624 15.2358C13.7963 15.2358 13.4185 15.6185 13.4185 16.0905C13.4185 16.5625 13.7963 16.9451 14.2624 16.9451Z" fill="#FFF4F4"/>
<path d="M21.7859 6.73811C22.252 6.73811 22.6298 6.35547 22.6298 5.88346C22.6298 5.41145 22.252 5.02881 21.7859 5.02881C21.3198 5.02881 20.9419 5.41145 20.9419 5.88346C20.9419 6.35547 21.3198 6.73811 21.7859 6.73811Z" fill="#FFF4F4"/>
<path d="M21.7859 10.1324C22.252 10.1324 22.6298 9.74976 22.6298 9.27775C22.6298 8.80574 22.252 8.4231 21.7859 8.4231C21.3198 8.4231 20.9419 8.80574 20.9419 9.27775C20.9419 9.74976 21.3198 10.1324 21.7859 10.1324Z" fill="#FFF4F4"/>
<path d="M21.7859 13.5267C22.252 13.5267 22.6298 13.144 22.6298 12.672C22.6298 12.2 22.252 11.8174 21.7859 11.8174C21.3198 11.8174 20.9419 12.2 20.9419 12.672C20.9419 13.144 21.3198 13.5267 21.7859 13.5267Z" fill="#FFF4F4"/>
<path d="M21.7859 16.9451C22.252 16.9451 22.6298 16.5625 22.6298 16.0905C22.6298 15.6185 22.252 15.2358 21.7859 15.2358C21.3198 15.2358 20.9419 15.6185 20.9419 16.0905C20.9419 16.5625 21.3198 16.9451 21.7859 16.9451Z" fill="#FFF4F4"/>
<path d="M29.3093 6.73811C29.7754 6.73811 30.1533 6.35547 30.1533 5.88346C30.1533 5.41145 29.7754 5.02881 29.3093 5.02881C28.8432 5.02881 28.4653 5.41145 28.4653 5.88346C28.4653 6.35547 28.8432 6.73811 29.3093 6.73811Z" fill="#FFF4F4"/>
<path d="M29.3093 10.1324C29.7754 10.1324 30.1533 9.74976 30.1533 9.27775C30.1533 8.80574 29.7754 8.4231 29.3093 8.4231C28.8432 8.4231 28.4653 8.80574 28.4653 9.27775C28.4653 9.74976 28.8432 10.1324 29.3093 10.1324Z" fill="#FFF4F4"/>
<path d="M29.3093 13.5267C29.7754 13.5267 30.1533 13.144 30.1533 12.672C30.1533 12.2 29.7754 11.8174 29.3093 11.8174C28.8432 11.8174 28.4653 12.2 28.4653 12.672C28.4653 13.144 28.8432 13.5267 29.3093 13.5267Z" fill="#FFF4F4"/>
<path d="M29.3093 16.9451C29.7754 16.9451 30.1533 16.5625 30.1533 16.0905C30.1533 15.6185 29.7754 15.2358 29.3093 15.2358C28.8432 15.2358 28.4653 15.6185 28.4653 16.0905C28.4653 16.5625 28.8432 16.9451 29.3093 16.9451Z" fill="#FFF4F4"/>
<path d="M25.5476 8.42317C26.0137 8.42317 26.3916 8.04053 26.3916 7.56852C26.3916 7.09651 26.0137 6.71387 25.5476 6.71387C25.0815 6.71387 24.7036 7.09651 24.7036 7.56852C24.7036 8.04053 25.0815 8.42317 25.5476 8.42317Z" fill="#FFF4F4"/>
<path d="M25.5476 11.8416C26.0137 11.8416 26.3916 11.459 26.3916 10.987C26.3916 10.515 26.0137 10.1323 25.5476 10.1323C25.0815 10.1323 24.7036 10.515 24.7036 10.987C24.7036 11.459 25.0815 11.8416 25.5476 11.8416Z" fill="#FFF4F4"/>
<path d="M25.5476 15.2359C26.0137 15.2359 26.3916 14.8533 26.3916 14.3813C26.3916 13.9093 26.0137 13.5266 25.5476 13.5266C25.0815 13.5266 24.7036 13.9093 24.7036 14.3813C24.7036 14.8533 25.0815 15.2359 25.5476 15.2359Z" fill="#FFF4F4"/>
<path d="M25.5476 18.6546C26.0137 18.6546 26.3916 18.272 26.3916 17.8C26.3916 17.328 26.0137 16.9453 25.5476 16.9453C25.0815 16.9453 24.7036 17.328 24.7036 17.8C24.7036 18.272 25.0815 18.6546 25.5476 18.6546Z" fill="#FFF4F4"/>
<path d="M18.0241 8.42317C18.4903 8.42317 18.8681 8.04053 18.8681 7.56852C18.8681 7.09651 18.4903 6.71387 18.0241 6.71387C17.558 6.71387 17.1802 7.09651 17.1802 7.56852C17.1802 8.04053 17.558 8.42317 18.0241 8.42317Z" fill="#FFF4F4"/>
<path d="M18.0241 11.8416C18.4903 11.8416 18.8681 11.459 18.8681 10.987C18.8681 10.515 18.4903 10.1323 18.0241 10.1323C17.558 10.1323 17.1802 10.515 17.1802 10.987C17.1802 11.459 17.558 11.8416 18.0241 11.8416Z" fill="#FFF4F4"/>
<path d="M18.0241 15.2359C18.4903 15.2359 18.8681 14.8533 18.8681 14.3813C18.8681 13.9093 18.4903 13.5266 18.0241 13.5266C17.558 13.5266 17.1802 13.9093 17.1802 14.3813C17.1802 14.8533 17.558 15.2359 18.0241 15.2359Z" fill="#FFF4F4"/>
<path d="M18.0241 18.6546C18.4903 18.6546 18.8681 18.272 18.8681 17.8C18.8681 17.328 18.4903 16.9453 18.0241 16.9453C17.558 16.9453 17.1802 17.328 17.1802 17.8C17.1802 18.272 17.558 18.6546 18.0241 18.6546Z" fill="#FFF4F4"/>
<path d="M10.5007 8.42317C10.9668 8.42317 11.3447 8.04053 11.3447 7.56852C11.3447 7.09651 10.9668 6.71387 10.5007 6.71387C10.0346 6.71387 9.65674 7.09651 9.65674 7.56852C9.65674 8.04053 10.0346 8.42317 10.5007 8.42317Z" fill="#FFF4F4"/>
<path d="M10.5007 11.8416C10.9668 11.8416 11.3447 11.459 11.3447 10.987C11.3447 10.515 10.9668 10.1323 10.5007 10.1323C10.0346 10.1323 9.65674 10.515 9.65674 10.987C9.65674 11.459 10.0346 11.8416 10.5007 11.8416Z" fill="#FFF4F4"/>
<path d="M10.5007 15.2359C10.9668 15.2359 11.3447 14.8533 11.3447 14.3813C11.3447 13.9093 10.9668 13.5266 10.5007 13.5266C10.0346 13.5266 9.65674 13.9093 9.65674 14.3813C9.65674 14.8533 10.0346 15.2359 10.5007 15.2359Z" fill="#FFF4F4"/>
<path d="M10.5007 18.6546C10.9668 18.6546 11.3447 18.272 11.3447 17.8C11.3447 17.328 10.9668 16.9453 10.5007 16.9453C10.0346 16.9453 9.65674 17.328 9.65674 17.8C9.65674 18.272 10.0346 18.6546 10.5007 18.6546Z" fill="#FFF4F4"/>
</svg>
