<svg width="24" height="27" viewBox="0 0 24 27" fill="none" xmlns="http://www.w3.org/2000/svg">
<path d="M23.3302 5.80775C18.9488 5.77983 14.986 3.88117 12 0.809814C9.01392 3.88117 5.05113 5.77983 0.669733 5.80775C0.586012 6.5337 0.558105 7.28758 0.558105 8.04146C0.558105 16.4737 5.3302 23.6774 12 26.4137C18.6697 23.6774 23.4418 16.4737 23.4418 8.04146C23.4418 7.28758 23.4139 6.5337 23.3302 5.80775Z" stroke="white" stroke-miterlimit="10"/>
<path d="M19.6745 8.71146C16.0466 8.43224 13.7303 6.4219 12.0001 5.19336C10.2698 6.4219 8.26055 8.15303 4.32566 8.71146C4.26985 9.21404 4.24194 9.29781 4.24194 9.82831C4.24194 15.5522 7.47915 20.4384 12.0001 22.2813C16.521 20.4384 19.7582 15.5522 19.7582 9.82831C19.7582 9.32573 19.7303 9.21404 19.6745 8.71146Z" stroke="white" stroke-miterlimit="10"/>
</svg>
