<svg width="32" height="32" viewBox="0 0 32 32" fill="none" xmlns="http://www.w3.org/2000/svg">
<path d="M15.9999 31.135C24.3588 31.135 31.135 24.3588 31.135 15.9999C31.135 7.64098 24.3588 0.864746 15.9999 0.864746C7.64098 0.864746 0.864746 7.64098 0.864746 15.9999C0.864746 24.3588 7.64098 31.135 15.9999 31.135Z" stroke="white" stroke-miterlimit="10" stroke-linecap="round" stroke-linejoin="round"/>
<path d="M16.0001 16.0864C18.3884 16.0864 20.3244 14.1503 20.3244 11.7621C20.3244 9.37381 18.3884 7.43774 16.0001 7.43774C13.6118 7.43774 11.6758 9.37381 11.6758 11.7621C11.6758 14.1503 13.6118 16.0864 16.0001 16.0864Z" stroke="white" stroke-miterlimit="10" stroke-linecap="round" stroke-linejoin="round"/>
<path d="M8.9082 23.1783C8.9082 19.2864 12.1082 16.0864 16.0001 16.0864C19.892 16.0864 23.092 19.2864 23.092 23.1783" stroke="white" stroke-miterlimit="10" stroke-linecap="round" stroke-linejoin="round"/>
</svg>
