<svg width="33" height="29" viewBox="0 0 33 29" fill="none" xmlns="http://www.w3.org/2000/svg">
<g clip-path="url(#clip0)">
<path d="M29.9302 24.7354H32.5203" stroke="white" stroke-miterlimit="10" stroke-linecap="round" stroke-linejoin="round"/>
<path d="M10.0728 24.7354H22.4478" stroke="white" stroke-miterlimit="10" stroke-linejoin="round"/>
<path d="M0.479736 0.473877H6.23555V20.8497" stroke="white" stroke-miterlimit="10" stroke-linecap="round" stroke-linejoin="round"/>
<path d="M6.23535 5.11768H26.0929V20.9445" stroke="white" stroke-miterlimit="10" stroke-linejoin="round"/>
<path d="M17.939 10.7091L17.0757 10.2353L16.3082 10.8039L15.3489 10.1405L14.1978 10.7091V5.2124H17.939V10.7091Z" stroke="white" stroke-miterlimit="10" stroke-linecap="round" stroke-linejoin="round"/>
<path d="M6.2354 28.526C8.35464 28.526 10.0726 26.8288 10.0726 24.7352C10.0726 22.6416 8.35464 20.9443 6.2354 20.9443C4.11617 20.9443 2.39819 22.6416 2.39819 24.7352C2.39819 26.8288 4.11617 28.526 6.2354 28.526Z" stroke="white" stroke-miterlimit="10" stroke-linecap="round" stroke-linejoin="round"/>
<path d="M6.2355 26.6307C7.29511 26.6307 8.1541 25.7821 8.1541 24.7353C8.1541 23.6885 7.29511 22.8398 6.2355 22.8398C5.17588 22.8398 4.31689 23.6885 4.31689 24.7353C4.31689 25.7821 5.17588 26.6307 6.2355 26.6307Z" stroke="white" stroke-miterlimit="10" stroke-linecap="round" stroke-linejoin="round"/>
<path d="M25.9971 28.526C28.1164 28.526 29.8343 26.8288 29.8343 24.7352C29.8343 22.6416 28.1164 20.9443 25.9971 20.9443C23.8779 20.9443 22.1599 22.6416 22.1599 24.7352C22.1599 26.8288 23.8779 28.526 25.9971 28.526Z" stroke="white" stroke-miterlimit="10" stroke-linecap="round" stroke-linejoin="round"/>
<path d="M25.997 26.6307C27.0566 26.6307 27.9156 25.7821 27.9156 24.7353C27.9156 23.6885 27.0566 22.8398 25.997 22.8398C24.9374 22.8398 24.0784 23.6885 24.0784 24.7353C24.0784 25.7821 24.9374 26.6307 25.997 26.6307Z" stroke="white" stroke-miterlimit="10" stroke-linecap="round" stroke-linejoin="round"/>
<path d="M10.7441 18.3857H15.1569" stroke="white" stroke-miterlimit="10" stroke-linecap="round" stroke-linejoin="round"/>
<path d="M10.7441 20.4707H14.1017" stroke="white" stroke-miterlimit="10" stroke-linecap="round" stroke-linejoin="round"/>
</g>
<defs>
<clipPath id="clip0">
<rect width="33" height="29" fill="white"/>
</clipPath>
</defs>
</svg>
